<svg width="154" height="155" viewBox="0 0 154 155" fill="none" xmlns="http://www.w3.org/2000/svg">
<path fill-rule="evenodd" clip-rule="evenodd" d="M56.4444 60.6007C52.2184 63.5465 47.4212 65.5727 42.363 66.5483L23.2295 70.2632L19.0823 48.9063L38.2157 45.1883C46.4299 43.5949 51.624 35.776 50.0985 27.92L71.4585 23.7728L88.8812 113.48L122.695 106.909L126.846 128.269L37.8514 145.553L33.7041 124.196L67.5212 117.628L56.4444 60.5976V60.6007Z" fill="#FFCE51"/>
<path d="M71.4647 23.7728L50.1047 27.9201L60.9839 13.8263L82.3407 9.67905L71.4616 23.7728H71.4647Z" fill="#FFB9EC"/>
<path d="M126.846 128.266L122.698 106.906L133.577 92.8152L137.725 114.172L126.846 128.266Z" fill="#FFB9EC"/>
<path d="M122.692 106.906L88.8749 113.474L99.7541 99.3834L133.568 92.8152L122.692 106.906Z" fill="#FFB9EC"/>
<path d="M88.8781 113.477L71.4554 23.7698L82.3346 9.67905L99.7573 99.3865L88.8781 113.477Z" fill="#FFB9EC"/>
<path d="M19.0729 48.9064L38.2064 45.1884C45.4169 43.7895 50.2991 37.598 50.3547 30.795C49.9371 30.9136 49.5147 31.0145 49.0886 31.0977L29.9521 34.8126L19.0729 48.9064Z" fill="#FFB9EC"/>
<path d="M33.7011 124.19L67.5151 117.621L65.2763 106.078L44.5771 110.099L33.7011 124.19Z" fill="#2685F5"/>
<path d="M56.4444 60.6007C52.2184 63.5465 47.4212 65.5727 42.363 66.5483L23.2295 70.2632L19.0823 48.9063L38.2157 45.1883C46.4299 43.5949 51.624 35.776 50.0985 27.92L71.4585 23.7728L88.8812 113.48L122.695 106.909L126.846 128.269L37.8514 145.553L33.7041 124.196L67.5212 117.628L56.4444 60.5976V60.6007Z" stroke="black" stroke-width="5.37607" stroke-linecap="square" stroke-linejoin="round"/>
<path d="M71.4647 23.7728L50.1047 27.9201L60.9839 13.8263L82.3407 9.67905L71.4616 23.7728H71.4647Z" stroke="black" stroke-width="5.37607" stroke-linecap="square" stroke-linejoin="round"/>
<path d="M126.846 128.266L122.698 106.906L133.577 92.8152L137.725 114.172L126.846 128.266Z" stroke="black" stroke-width="5.37607" stroke-linecap="square" stroke-linejoin="round"/>
<path d="M122.692 106.906L88.8749 113.474L99.7541 99.3834L133.568 92.8152L122.692 106.906Z" stroke="black" stroke-width="5.37607" stroke-linecap="square" stroke-linejoin="round"/>
<path d="M88.8781 113.477L71.4554 23.7698L82.3346 9.67905L99.7573 99.3865L88.8781 113.477Z" stroke="black" stroke-width="5.37607" stroke-linecap="square" stroke-linejoin="round"/>
<path d="M19.0729 48.9064L38.2064 45.1884C45.4169 43.7895 50.2991 37.598 50.3547 30.795C49.9371 30.9136 49.5147 31.0145 49.0886 31.0977L29.9521 34.8126L19.0729 48.9064Z" stroke="black" stroke-width="5.37607" stroke-linecap="square" stroke-linejoin="round"/>
<path d="M33.7011 124.19L67.5151 117.621L65.2763 106.078L44.5771 110.099L33.7011 124.19Z" stroke="black" stroke-width="5.37607" stroke-linecap="square" stroke-linejoin="round"/>
</svg>
