<svg width="1440" height="4702" viewBox="0 0 1440 4702" fill="none" xmlns="http://www.w3.org/2000/svg">
<rect y="3307" width="1440" height="789" fill="#F6FF54"/>
<rect y="1648" width="1440" height="817.586" fill="#00D48C"/>
<rect y="833" width="1440" height="815" fill="#F6FF54"/>
<rect y="54" width="1440" height="779" fill="url(#paint0_linear_606_87)"/>
<path d="M0 0H1440V84.7924C1440 84.7924 1181.5 149.489 720 84.7924C258.5 20.0958 0 84.7924 0 84.7924V0Z" fill="#109698"/>
<path d="M0 1H1440V66.0769C1440 66.0769 1177.6 131.154 720 66.0769C262.398 1 0 66.0769 0 66.0769V1Z" fill="#ABFBFD"/>
<path d="M527.085 4083.94C292.991 4118.08 0 3985.47 0 3985.47V4702H1440V3985.47C1440 3985.47 1286.27 3902 1065.65 3902C845.033 3902 761.179 4049.8 527.085 4083.94Z" fill="#111A37"/>
<path d="M527.085 4111.56C292.991 4144.32 0 4017.08 0 4017.08V4671H1440V4017.08C1440 4017.08 1286.27 3937 1065.65 3937C845.033 3937 761.179 4078.8 527.085 4111.56Z" fill="url(#paint1_linear_606_87)"/>
<path d="M416.446 2872.22C129.951 2845.79 0 2990.61 0 2990.61V3411.71C0 3411.71 70.716 3469.57 152.5 3469.57C234.284 3469.57 292.515 3337.94 388 3350.58C452.734 3359.15 500.106 3462.96 565 3469.57C651.23 3478.35 693.46 3350.52 780 3350.58C866.35 3350.64 916.636 3468.61 1002.98 3469.57C1092.56 3470.56 1143.92 3349.59 1233.5 3350.58C1294.71 3351.25 1440 3469.57 1440 3469.57V2911.66C1440 2911.66 1260.88 3099.98 1002.98 3099.98C745.087 3099.98 702.941 2898.65 416.446 2872.22Z" fill="#1C022D"/>
<path d="M416.446 2892.78C129.951 2919.21 0 2774.39 0 2774.39V2353.29C0 2353.29 70.716 2295.43 152.5 2295.43C234.284 2295.43 292.515 2427.06 388 2414.42C452.734 2405.85 500.106 2302.04 565 2295.43C651.23 2286.65 693.46 2414.48 780 2414.42C866.35 2414.36 916.636 2296.39 1002.98 2295.43C1092.56 2294.44 1143.92 2415.41 1233.5 2414.42C1294.71 2413.75 1440 2295.43 1440 2295.43V2853.34C1440 2853.34 1260.88 2665.02 1002.98 2665.02C745.087 2665.02 702.941 2866.35 416.446 2892.78Z" fill="#1C022D"/>
<rect y="2681" width="1440" height="520" fill="#4F48C5"/>
<path d="M416.446 2934.78C129.951 2961.21 0 2816.39 0 2816.39V2395.29C0 2395.29 70.716 2337.43 152.5 2337.43C234.284 2337.43 292.515 2469.06 388 2456.42C452.734 2447.85 500.106 2344.04 565 2337.43C651.23 2328.65 693.46 2456.48 780 2456.42C866.35 2456.36 916.636 2338.39 1002.98 2337.43C1092.56 2336.44 1143.92 2457.41 1233.5 2456.42C1294.71 2455.75 1440 2337.43 1440 2337.43V2895.34C1440 2895.34 1260.88 2707.02 1002.98 2707.02C745.087 2707.02 702.941 2908.35 416.446 2934.78Z" fill="#4F48C5"/>
<path d="M416.446 2833.22C129.951 2806.79 0 2951.61 0 2951.61V3372.71C0 3372.71 70.716 3430.57 152.5 3430.57C234.284 3430.57 292.515 3298.94 388 3311.58C452.734 3320.15 500.106 3423.96 565 3430.57C651.23 3439.35 693.46 3311.52 780 3311.58C866.35 3311.64 916.636 3429.61 1002.98 3430.57C1092.56 3431.56 1143.92 3310.59 1233.5 3311.58C1294.71 3312.25 1440 3430.57 1440 3430.57V2872.66C1440 2872.66 1260.88 3060.98 1002.98 3060.98C745.087 3060.98 702.941 2859.65 416.446 2833.22Z" fill="#4F48C5"/>
<path d="M388 629.54C101.505 612.942 0 735.961 0 735.961V1000.43C0 1000.43 70.716 1036.77 152.5 1036.77C234.284 1036.77 292.515 939.818 388 947.755C452.734 953.137 500.106 1032.62 565 1036.77C651.23 1042.29 693.46 947.719 780 947.755C866.35 947.792 916.636 1036.17 1002.98 1036.77C1092.56 1037.39 1135.92 947.135 1225.5 947.755C1286.71 948.18 1440 1036.77 1440 1036.77V686.375C1440 686.375 1260.88 804.652 1002.98 804.652C745.087 804.652 674.495 646.139 388 629.54Z" fill="#0C8486"/>
<path d="M388 629.435C101.505 613.973 0 728.57 0 728.57V974.935C0 974.935 70.716 1008.78 152.5 1008.78C234.284 1008.78 292.515 918.471 388 925.865C452.734 930.878 500.106 1004.92 565 1008.78C651.23 1013.92 693.46 925.831 780 925.865C866.35 925.899 916.636 1008.23 1002.98 1008.78C1092.56 1009.36 1135.92 925.287 1225.5 925.865C1286.71 926.26 1440 1008.78 1440 1008.78V682.379C1440 682.379 1260.88 792.559 1002.98 792.559C745.087 792.559 674.495 644.897 388 629.435Z" fill="#ABFBFD"/>
<rect y="820" width="1440" height="64" fill="#ABFBFD"/>
<defs>
<linearGradient id="paint0_linear_606_87" x1="629" y1="235.5" x2="941.5" y2="992.5" gradientUnits="userSpaceOnUse">
<stop offset="0.00980276" stop-color="#DDFF77"/>
<stop offset="0.76445" stop-color="#58C5F8"/>
</linearGradient>
<linearGradient id="paint1_linear_606_87" x1="425.5" y1="4023" x2="934.005" y2="4671" gradientUnits="userSpaceOnUse">
<stop offset="0.0149049" stop-color="#54B6D0"/>
<stop offset="1" stop-color="#294666"/>
</linearGradient>
</defs>
</svg>
