<?xml version="1.0" standalone="no"?>
<!DOCTYPE svg PUBLIC "-//W3C//DTD SVG 20010904//EN"
 "http://www.w3.org/TR/2001/REC-SVG-20010904/DTD/svg10.dtd">
<svg version="1.0" xmlns="http://www.w3.org/2000/svg"
 width="512.000000pt" height="512.000000pt" viewBox="0 0 512.000000 512.000000"
 preserveAspectRatio="xMidYMid meet">

<g transform="translate(0.000000,512.000000) scale(0.100000,-0.100000)"
fill="#000000" stroke="none">
<path d="M1999 4631 c-75 -24 -141 -73 -184 -135 -110 -162 -97 -339 51 -676
l29 -65 3 -612 3 -612 -23 -20 c-31 -29 -115 -29 -152 0 -14 11 -31 29 -36 40
-15 26 -170 879 -170 930 0 22 11 88 24 147 80 349 44 572 -112 687 -56 41
-156 75 -221 75 -68 0 -166 -26 -233 -62 -103 -55 -168 -148 -188 -270 -16
-103 0 -174 70 -308 163 -311 178 -347 205 -485 143 -747 165 -938 165 -1445
0 -216 2 -242 23 -320 29 -104 81 -229 158 -375 85 -163 91 -188 98 -418 6
-193 7 -199 30 -218 22 -18 49 -19 696 -19 646 0 674 1 696 19 22 18 24 26 25
142 1 93 7 145 23 209 63 242 227 520 478 811 197 228 312 327 473 409 154 78
318 230 373 348 64 136 33 271 -93 405 -46 50 -82 77 -138 105 -70 34 -83 37
-162 37 -76 0 -93 -4 -151 -32 -150 -74 -259 -241 -324 -494 -40 -156 -180
-299 -281 -287 -20 2 -34 13 -49 38 -17 29 -20 52 -20 140 1 91 14 174 104
635 56 292 111 550 122 574 11 24 44 76 74 115 30 39 69 103 87 141 31 66 32
76 33 185 0 110 -2 118 -32 181 -41 84 -118 160 -202 202 -62 30 -72 32 -176
32 -102 0 -114 -2 -164 -29 -69 -36 -149 -118 -190 -196 -29 -54 -33 -72 -38
-168 -7 -132 8 -233 47 -323 53 -119 52 -132 -40 -628 -51 -279 -89 -459 -101
-483 -40 -78 -125 -97 -183 -39 l-31 31 -3 548 c-2 353 1 572 8 617 7 46 28
106 60 175 59 128 78 190 86 289 7 84 -9 169 -47 242 -26 51 -101 134 -151
165 -98 62 -239 80 -349 45z m237 -169 c82 -42 137 -121 150 -215 9 -65 -20
-180 -71 -287 -84 -172 -80 -128 -80 -820 l0 -615 27 -50 c51 -97 136 -148
244 -149 73 0 158 37 199 86 63 74 74 115 158 562 68 363 81 448 81 536 0 86
-4 116 -23 165 -48 126 -53 142 -58 211 -12 156 22 244 121 312 42 28 57 32
110 32 188 -1 305 -180 236 -362 -11 -29 -45 -87 -76 -128 -103 -137 -105
-142 -221 -742 -114 -592 -128 -704 -100 -811 21 -79 60 -142 109 -175 37 -24
51 -27 122 -27 72 0 89 4 148 33 107 52 232 205 264 322 55 199 103 304 169
373 59 62 98 81 165 81 67 0 108 -20 173 -83 61 -58 87 -108 87 -166 0 -67
-27 -111 -128 -206 -67 -64 -113 -97 -193 -139 -142 -75 -234 -146 -369 -286
-380 -391 -621 -795 -675 -1127 -8 -51 -15 -107 -15 -124 l0 -33 -559 0 -559
0 -5 148 c-3 91 -11 170 -21 207 -9 33 -54 138 -101 233 -47 95 -101 218 -119
275 l-34 102 -5 355 c-8 469 -16 547 -128 1149 -67 359 -74 384 -185 586 -116
215 -127 239 -126 308 0 34 5 74 10 88 40 102 195 170 310 138 61 -17 127 -82
142 -141 22 -78 13 -239 -20 -398 -16 -80 -30 -171 -30 -202 0 -78 157 -932
181 -988 60 -137 234 -203 377 -143 45 19 112 82 129 120 10 26 13 153 13 640
0 669 -2 688 -61 812 -46 98 -77 192 -90 279 -10 67 -9 85 5 135 19 66 72 126
126 145 50 16 148 8 196 -16z"/>
<path d="M1905 2129 c-60 -9 -209 -52 -233 -67 -20 -13 65 -145 87 -137 86 33
168 47 311 52 171 6 294 -6 386 -37 31 -11 58 -20 59 -20 2 0 22 30 44 67 33
51 39 68 29 75 -28 18 -168 57 -242 67 -89 13 -353 13 -441 0z"/>
<path d="M2825 1839 c-247 -36 -433 -198 -511 -445 -37 -117 -31 -163 26 -183
61 -21 95 8 116 99 51 218 209 352 444 375 85 8 120 30 120 76 0 41 -9 58 -41
74 -31 16 -63 17 -154 4z"/>
</g>
</svg>
