<svg width="192" height="238" viewBox="0 0 192 238" fill="none" xmlns="http://www.w3.org/2000/svg">
<path d="M82.3532 25.9217C66.5028 33.5832 58.3133 53.1333 62.5401 70.0415C67.0311 86.9496 83.1457 99.8949 100.581 100.159C120.13 100.687 138.622 86.6854 146.548 69.2489C150.774 60.5306 151.567 51.0198 148.661 42.0373C145.755 33.5832 140.472 26.4501 133.339 21.1663C116.168 8.22101 89.7501 11.3913 74.1638 25.6575C73.1071 26.7143 74.428 28.8278 75.7489 28.0352C90.0143 18.2602 108.771 12.9764 125.149 20.9021C139.943 28.0352 149.982 44.9434 145.755 61.3232C141.264 78.4955 125.149 93.026 107.978 96.1963C91.3351 99.3665 74.6921 89.8557 67.5594 74.7968C59.6342 57.6245 67.8236 37.0177 83.1457 26.9785C83.6741 26.4501 83.1457 25.3933 82.3532 25.9217Z" fill="#B15500"/>
<path d="M65.7102 42.5656C65.7102 38.0744 64.6536 33.8474 65.1819 29.3561C65.4461 25.6575 66.5028 21.6946 68.8803 18.7886C70.9937 16.1467 74.1639 14.5615 77.334 15.6183C80.7682 16.4108 82.8816 18.7885 82.6174 21.9588C82.6174 23.544 84.995 24.0724 85.5233 22.4872C86.3158 18.5244 83.6741 15.0899 80.2398 13.5048C76.2772 11.6554 72.3146 12.1838 68.8803 14.8257C65.4461 17.4676 63.3327 21.9589 62.8044 26.4501C61.7477 31.7339 61.7476 38.3386 64.9177 42.8299C65.1819 43.3582 65.7102 43.094 65.7102 42.5656Z" fill="#B15500"/>
<path d="M127.792 23.0155C129.641 19.5811 132.283 16.1466 135.453 13.7689C138.887 11.6554 143.114 11.6553 145.227 15.354C147.076 18.7885 146.548 22.7513 144.699 25.9216C143.642 27.5067 142.057 29.0919 140.736 30.4129C139.415 31.998 137.302 33.0547 136.245 34.6399C135.717 35.6966 136.509 36.7534 137.566 36.4892C139.944 35.6966 142.057 33.319 143.642 31.7338C145.491 29.8845 147.076 27.7709 148.133 25.3932C149.718 21.4304 149.718 16.4108 146.812 12.9763C144.17 9.54184 139.679 9.01346 135.981 10.8628C131.49 12.9763 128.584 17.9959 126.471 22.223C126.206 23.2797 127.263 24.0723 127.792 23.0155Z" fill="#B15500"/>
<path d="M92.9204 35.4323C92.1279 38.0742 92.6562 40.7161 93.7129 43.0938C94.2413 43.8864 95.2979 43.8864 96.0905 43.358C97.9397 41.5087 100.317 38.6026 98.7322 35.9607C97.9397 34.9039 96.6189 34.1114 95.5622 33.8472C94.2413 33.8472 92.6562 34.6397 92.9204 35.9607C92.9204 36.4891 93.1846 37.0175 93.7129 37.0175C94.5054 37.2817 95.5621 36.7533 96.0905 38.0742C96.3546 39.131 94.7696 40.7161 93.9771 41.5087C94.6816 41.5087 95.386 41.5967 96.0905 41.7729C95.0338 40.1877 94.7696 38.0742 95.298 36.2249C95.5621 34.6398 93.4488 34.1114 92.9204 35.4323Z" fill="#B15500"/>
<path d="M114.847 38.3385C113.262 39.9236 112.469 41.773 112.733 43.8865C112.733 45.2074 114.054 46 115.111 45.4716C117.224 44.1507 119.866 42.3013 120.659 39.9236C121.98 37.5459 118.545 35.1682 116.432 34.6398C115.903 34.3756 115.375 34.6398 115.111 34.904C114.407 35.6085 114.407 36.3131 115.111 37.0176C115.903 38.0743 116.96 38.8669 117.753 39.9236C117.753 39.3952 117.753 38.7788 117.753 38.0743C116.696 40.1878 115.375 41.5088 113.526 42.5655C114.23 42.9178 115.023 43.2701 115.903 43.6223C115.639 42.3014 115.904 41.2446 116.696 40.1878C118.017 38.8669 116.168 37.0176 114.847 38.3385Z" fill="#B15500"/>
<path d="M98.9962 58.9452C98.732 58.9452 98.2037 58.681 98.2037 58.4168C98.2037 57.8884 98.4679 57.6242 98.4679 57.36C98.4679 57.36 98.3798 57.4481 98.2037 57.6242C98.732 57.6242 98.9962 57.6242 99.5245 57.0958C99.7007 56.9197 99.7007 56.9197 99.5245 57.0958C99.5245 57.0958 99.6126 57.0958 99.7887 57.0958C99.7887 56.9197 99.7007 56.9197 99.5245 57.0958C99.2604 57.0958 100.053 56.8316 99.5245 57.0958C99.2604 57.0958 99.7887 56.8317 99.5245 56.8317V57.0958C99.3484 56.9197 99.3484 56.9197 99.5245 57.0958C100.053 57.36 100.845 57.36 101.374 57.0958C101.638 56.5675 101.902 55.7749 101.374 55.2465C100.581 54.7181 99.5245 54.454 98.732 54.7181C98.3797 54.8943 98.1156 55.1585 97.9395 55.5107C97.4111 56.0391 97.4111 56.6555 97.9395 57.36C97.7634 57.1839 97.6753 57.0958 97.6753 57.0958C97.4111 57.8884 97.9395 59.2094 98.9962 59.2094C99.2603 59.2094 99.2603 58.9452 98.9962 58.9452Z" fill="#B15500"/>
<path d="M94.5054 57.3604C96.883 56.832 99.2605 56.0394 101.638 55.7752C104.104 55.5991 106.481 55.6872 108.771 56.0394C108.242 55.3349 107.714 54.6304 107.186 53.9259C106.393 57.3604 104.28 60.0023 101.374 61.8516C101.902 61.8516 102.431 61.8516 102.959 61.8516C101.638 61.5874 98.468 59.7381 99.7889 57.8887C100.317 57.0962 101.902 57.0962 102.166 58.1529C102.431 60.2665 105.601 59.2097 105.336 57.0962C105.072 54.4543 101.902 53.3975 99.5247 54.1901C96.6188 54.9827 95.2979 58.1529 96.3546 60.7948C97.1471 62.38 98.468 63.7009 99.7889 64.4935C101.638 65.5502 102.695 65.5502 104.28 64.2293C107.45 61.8516 109.563 58.4171 110.356 54.7185C110.884 53.6617 109.828 52.8691 108.771 52.6049C104.016 52.0766 97.6754 52.3407 93.4486 55.2468C92.3919 55.7752 93.1845 57.3604 94.5054 57.3604Z" fill="#B15500"/>
<path d="M101.374 59.2098C101.374 59.7382 101.374 60.5308 101.638 61.0591C101.902 61.5875 102.695 61.5875 102.959 61.0591C103.487 60.5308 103.223 59.7382 103.223 59.2098C103.223 58.6814 102.959 58.1531 102.431 58.1531C101.902 58.1531 101.374 58.6814 101.374 59.2098Z" fill="#B15500"/>
<path d="M93.7129 58.6812C96.3546 59.4738 98.468 61.5873 99.2606 64.4934C99.7889 66.3427 102.695 65.5502 102.166 63.7008C101.11 59.738 97.9397 56.8319 93.9771 56.3035C92.6562 56.0393 92.392 58.1529 93.7129 58.6812Z" fill="#B15500"/>
<path d="M100.582 62.6442C101.902 62.6442 99.789 67.1354 99.2606 67.6638C98.2039 68.7205 96.6189 69.2489 95.0338 68.7205C93.713 68.4564 92.3921 67.6638 91.8638 66.3428C91.0713 65.2861 91.0712 64.2293 90.2787 63.1725C89.4862 62.38 88.4295 62.9084 87.9012 63.4367C85.7878 66.607 90.0145 71.0982 92.9205 72.155C96.3547 73.4759 100.317 71.6266 102.167 68.4563C103.487 66.8712 104.544 60.5306 100.846 61.059C98.7323 61.3232 98.7323 64.4935 100.846 64.2293C101.902 63.9651 101.638 62.6442 100.582 62.6442Z" fill="#B15500"/>
<path d="M103.223 62.1157C101.11 66.0786 102.959 71.8907 107.45 73.4758C112.469 75.3252 117.753 71.0981 118.017 65.8143C118.017 63.7008 114.583 63.7008 114.583 65.8143C114.583 68.9846 111.149 71.6265 108.243 70.5698C105.601 69.513 104.28 65.8144 105.601 63.4367C106.393 61.8515 104.016 60.5306 103.223 62.1157Z" fill="#B15500"/>
<path d="M96.619 74.797C100.317 77.9673 107.978 77.9673 109.828 72.6835C110.092 71.8909 109.035 71.3625 108.507 71.8909C105.601 74.2686 101.638 75.8538 98.204 73.2119C97.1474 72.1551 95.5623 73.7402 96.619 74.797Z" fill="#B15500"/>
<path d="M78.9192 61.8515C73.8999 61.5873 68.8806 62.3799 64.3896 64.4934C62.1001 65.3741 59.9867 66.4308 58.0495 67.6637C56.2002 68.9846 54.0869 70.5698 53.5586 72.6833C53.2944 73.2117 53.8227 73.4759 54.351 73.4759C56.2003 72.9475 58.0495 71.3624 59.8987 70.3056C61.6599 69.0727 63.5971 68.016 65.7105 67.1353C69.9373 65.286 74.4283 64.4934 78.9192 64.2292C80.5043 63.965 80.5043 62.1157 78.9192 61.8515Z" fill="#B15500"/>
<path d="M73.6355 73.2114C70.7296 73.7398 67.8237 74.7966 65.4461 76.3817C63.3328 77.4385 59.8985 79.8162 59.6343 82.1939C59.6343 82.7222 60.1626 83.5148 60.691 83.2506C61.7477 82.9865 62.276 82.1939 63.0685 81.4013C64.1252 80.3445 65.27 79.3759 66.5028 78.4952C68.9685 76.9101 71.5221 75.7653 74.1639 75.0607C75.4847 74.7966 74.9564 72.9472 73.6355 73.2114Z" fill="#B15500"/>
<path d="M130.433 66.8709C133.603 68.1919 136.773 70.3054 139.151 72.6831C140.384 73.916 141.528 75.1489 142.585 76.3818C143.642 77.7027 144.17 79.0237 145.227 80.0804C146.019 80.3446 146.812 79.8162 146.812 79.0237C146.812 77.4385 145.491 75.8534 144.434 74.7966C143.378 73.2115 142.145 71.7144 140.736 70.3054C137.742 67.8396 134.484 65.9903 130.961 64.7574C129.641 64.2291 129.112 66.3425 130.433 66.8709Z" fill="#B15500"/>
<path d="M133.075 80.0803C135.188 82.7222 137.302 86.1567 139.943 88.2702C140.736 89.0628 142.057 88.2702 141.528 86.9493C139.679 83.779 137.037 81.1371 134.924 78.231C133.867 77.1742 132.018 78.7594 133.075 80.0803Z" fill="#B15500"/>
<path d="M67.0311 83.5151C51.4448 86.6854 43.5197 101.744 40.0854 116.011C36.3869 131.069 34.0094 148.242 37.1795 163.565C43.2555 192.89 73.1072 209.005 101.374 206.363C127.791 203.722 151.831 186.285 159.492 160.394C163.455 147.713 163.455 133.711 159.756 121.03C157.907 114.425 155.265 108.349 151.567 102.801C149.806 99.983 147.781 97.3411 145.491 94.8753C143.642 92.7618 138.887 89.3273 139.943 85.8929C140.207 84.0435 142.057 82.4584 143.378 80.8732C144.61 79.2881 146.019 77.791 147.604 76.382C150.51 73.4759 153.68 70.834 157.379 69.2489C164.247 66.3428 173.229 66.8712 177.72 73.4759C181.419 78.7597 181.683 85.6286 179.305 91.4408C176.664 98.0456 170.588 102.801 164.247 105.707C160.813 107.292 157.115 108.349 153.68 109.406C151.567 109.934 152.36 113.104 154.473 112.576C167.682 109.406 181.683 101.48 183.796 86.9496C184.589 81.4016 183.268 75.0611 179.569 70.5698C175.079 65.0218 167.946 63.4367 161.077 64.4935C153.416 66.0786 147.076 71.3624 141.793 77.1746C139.679 79.5523 136.245 82.7226 135.981 86.4212C135.981 89.8557 138.358 92.7618 140.736 95.1395C150.246 104.915 156.322 117.331 158.171 130.805C160.021 144.279 158.171 158.281 151.831 170.169C145.491 182.058 135.188 191.305 123.3 196.853C98.468 208.477 65.182 204.25 48.2748 181.001C38.5004 167.528 37.972 150.355 39.8212 134.504C41.6704 118.917 44.3121 100.159 57.785 90.1199C60.779 87.8302 64.0372 86.3332 67.5595 85.6287C68.8804 85.3645 68.352 83.2509 67.0311 83.5151Z" fill="#B15500"/>
<path d="M164.247 64.4936C159.492 70.0416 158.435 77.7031 160.549 84.8362C161.606 88.2707 163.191 91.441 165.568 94.0829C167.417 96.4606 171.116 99.895 174.286 99.895C175.343 99.895 175.607 98.8383 175.078 98.0458C174.022 96.989 172.701 96.1964 171.38 95.4039C170.147 94.5232 169.002 93.5545 167.946 92.4977C165.832 89.8559 164.247 86.9497 163.455 84.0436C161.606 77.9673 162.398 71.0983 165.304 65.5503C165.832 64.7578 164.776 63.9652 164.247 64.4936Z" fill="#B15500"/>
<path d="M162.398 76.1177C164.247 74.7968 166.097 73.74 167.682 72.1549C169.003 70.8339 171.116 69.7772 171.908 67.6637C172.173 66.8711 171.116 66.0785 170.323 66.3427C168.474 66.8711 167.153 68.7204 165.832 70.0414C164.247 71.3623 162.927 73.2116 161.341 74.7968C160.813 75.5894 161.606 76.9103 162.398 76.1177Z" fill="#B15500"/>
<path d="M164.776 78.7594C164.247 79.552 163.191 82.1939 165.568 81.6655C166.889 81.6655 168.21 79.8162 169.267 79.0236C171.116 76.9101 172.701 75.0607 174.55 72.9472C175.607 71.6263 177.984 69.7769 178.513 67.9276C178.777 66.8709 177.984 66.0783 176.928 66.3425C175.607 66.6067 174.55 68.456 173.758 69.2486C172.349 70.8337 170.94 72.5069 169.531 74.2682C168.298 75.6772 167.065 77.0862 165.832 78.4952C165.568 78.4952 164.776 79.2878 164.776 79.552L166.361 80.6087L166.625 79.8162C167.153 78.4952 165.568 77.4384 164.776 78.7594Z" fill="#B15500"/>
<path d="M167.154 87.478C169.267 86.069 171.204 84.5719 172.965 82.9868C173.494 82.7226 178.777 78.4955 178.513 78.2313C178.249 77.9671 177.721 78.2313 177.985 78.4955C178.513 80.0807 181.683 77.4388 179.041 76.1178C176.928 75.061 174.55 77.9671 173.494 79.0239C170.852 81.1374 168.474 83.5152 166.097 85.8929C165.304 86.6854 166.361 88.0064 167.154 87.478Z" fill="#B15500"/>
<path d="M173.758 85.6285C172.437 86.9494 171.38 88.2704 170.059 89.5913C169.267 90.1197 170.059 91.1765 170.852 90.9123C172.965 90.3839 175.079 89.5913 176.664 88.0062C178.249 86.6852 180.098 84.5717 180.362 82.7224C180.362 81.6656 179.305 81.4015 178.513 81.9298C177.192 82.9866 176.399 84.8359 174.814 86.1569C173.494 87.4778 171.908 88.5346 170.059 89.3271C170.588 89.8555 171.028 90.2958 171.38 90.6481C172.173 89.0629 173.494 87.742 174.55 86.1569C174.814 85.8927 174.286 85.1001 173.758 85.6285Z" fill="#B15500"/>
<path d="M171.644 98.3099C172.877 96.5486 174.374 94.9635 176.135 93.5545C177.72 92.2335 179.834 91.1768 181.419 89.5916C181.947 88.799 181.419 87.7423 180.362 88.0065C178.249 88.5348 176.135 90.3842 174.55 91.7051C172.789 93.2903 171.204 95.0515 169.795 96.9889C169.003 98.0457 170.852 99.3666 171.644 98.3099Z" fill="#B15500"/>
<path d="M51.7092 93.5541C50.6525 89.5913 47.7466 85.8926 45.1049 82.7223C42.1989 79.552 39.0289 76.3818 35.0663 74.5324C27.141 70.5696 18.1591 71.8905 11.2906 77.1743C-2.97486 87.7419 -2.18237 110.462 12.0831 120.502C16.0457 122.879 20.5366 124.464 25.0276 125.257C29.2544 125.521 34.5379 125.521 38.2363 122.879C39.5572 122.087 38.7647 120.501 37.4438 120.766C33.7454 121.294 30.3111 122.351 26.6126 122.087C23.1784 121.822 19.48 120.766 16.3099 119.181C9.7055 115.482 5.21453 109.141 4.42201 101.744C3.36531 94.3467 5.7429 86.421 11.2906 81.1372C16.8382 75.8534 25.2918 74.0041 32.4245 76.9101C36.3871 78.4953 39.5572 81.4014 42.4631 84.3075C45.369 87.4777 47.7466 91.4406 50.9167 94.0825C51.1809 94.6109 51.9734 94.0825 51.7092 93.5541Z" fill="#B15500"/>
<path d="M9.96937 100.687C9.44102 102.272 8.82458 103.769 8.12012 105.178C8.12012 105.707 8.12013 105.971 8.38431 106.235C14.1961 111.783 24.2348 103.593 28.1974 99.102C33.2167 93.0256 37.1793 84.0432 35.0659 76.1175C34.8018 74.7965 32.9525 75.3249 32.6883 76.3817C32.16 83.5148 31.1033 89.8553 26.8765 95.6675C25.0273 98.5736 22.3855 100.951 19.4796 102.801C16.5737 104.65 12.3469 107.028 9.1768 104.914C9.35292 105.266 9.52906 105.619 9.70518 105.971C10.0574 104.21 10.4977 102.536 11.0261 100.951C11.2902 100.423 10.2335 100.159 9.96937 100.687Z" fill="#B15500"/>
<path d="M42.199 181.001C43.5199 181.001 44.3124 179.68 44.0483 178.359C43.2557 175.982 40.614 175.982 38.7648 175.982C32.9529 175.982 27.4053 177.567 22.6501 179.945C12.3473 185.228 4.95043 195.003 2.83704 206.099C0.723641 215.874 2.04451 230.669 12.0831 235.953C22.3859 241.501 34.538 234.103 42.7274 228.027C48.8034 223.8 54.8794 219.045 60.427 214.289C64.918 210.326 69.1449 204.778 66.7673 198.702C65.7106 196.853 63.0688 198.438 63.8614 200.287C65.9748 205.043 60.9554 209.534 57.7853 212.44C53.7346 215.786 49.5079 219.133 45.105 222.479C37.9722 227.763 29.2545 234.896 19.7442 234.896C9.17721 234.896 5.21457 224.064 4.9504 215.082C4.68623 205.835 8.12053 196.324 14.7249 189.455C18.1592 185.757 22.6501 182.851 27.6694 181.001C29.9589 180.121 32.3365 179.504 34.8022 179.152C36.2111 178.976 37.62 178.8 39.029 178.624C39.3812 178.624 39.8215 178.624 40.3498 178.624C40.7021 178.624 41.0543 178.712 41.4065 178.888C42.111 178.712 42.3751 179.064 42.199 179.945C41.4065 179.945 41.4065 181.001 42.199 181.001Z" fill="#B15500"/>
<path d="M13.9321 191.041C20.8007 192.626 26.3483 197.909 28.99 204.25C30.3109 207.42 30.8393 210.855 30.8393 214.289C30.8393 217.988 29.2542 220.894 28.4617 224.328C28.1975 225.385 29.2542 225.914 30.0467 225.121C32.9526 222.743 33.7452 218.252 33.7452 214.553C33.7452 210.855 32.9526 206.892 31.6318 203.457C28.4617 196.06 22.3857 190.248 14.4604 188.927C13.1395 188.663 12.6112 190.512 13.9321 191.041Z" fill="#B15500"/>
<path d="M13.404 233.311C16.5741 228.379 19.7442 223.448 22.9143 218.516C24.4994 216.05 26.1725 213.673 27.9336 211.383C29.5187 209.005 31.3679 206.892 32.4246 204.25C32.6888 203.457 31.8962 202.929 31.3679 203.193C29.2545 204.778 27.6694 207.42 26.0844 209.534C24.3232 211.823 22.6501 214.201 21.0651 216.667C17.5427 221.774 14.4607 227.058 11.819 232.518C11.5548 233.311 12.6115 234.103 13.404 233.311Z" fill="#B15500"/>
<path d="M23.7065 230.669C25.8199 228.027 27.8453 225.473 29.7826 223.007C31.6318 220.629 34.2735 217.988 35.0661 215.346C34.5377 215.17 34.0094 214.993 33.481 214.817C31.6318 219.573 29.7826 224.328 26.8766 228.555C26.3483 229.084 27.405 229.612 27.9333 229.348C30.0467 227.498 32.9526 225.385 34.2735 223.007C34.5377 222.479 34.0094 221.95 33.7452 222.215C31.1034 223.536 28.7259 226.177 26.8766 228.291C27.405 228.467 27.8453 228.731 28.1975 229.083C29.7826 224.064 32.4243 219.837 35.0661 215.346C35.3302 214.817 34.5377 214.025 34.0093 214.289C31.3676 215.874 29.5184 219.044 27.9333 221.422C25.8199 223.888 23.7946 226.53 21.8573 229.348C21.329 230.14 22.914 231.461 23.7065 230.669Z" fill="#B15500"/>
<path d="M125.15 199.495C127.527 203.986 131.226 208.213 134.924 211.911C138.358 215.346 142.321 218.516 146.812 220.894C155.001 225.649 165.568 227.763 174.814 224.593C183.004 221.951 189.608 214.818 191.193 206.364C193.042 196.588 186.966 188.134 180.362 181.265C173.229 174.132 163.191 167.528 152.36 168.849C150.51 169.113 150.51 172.019 152.36 172.019C161.077 172.019 169.002 175.453 175.343 181.265C181.419 186.813 188.816 194.739 188.287 203.457C188.023 211.119 182.475 218.252 175.343 221.158C166.889 224.593 157.115 223.007 149.189 219.045C144.434 216.667 140.472 213.497 136.773 209.798C133.075 206.363 130.169 202.136 126.47 198.438C125.678 197.645 124.621 198.702 125.15 199.495Z" fill="#B15500"/>
<path d="M155.002 220.894C155.53 213.496 158.7 205.835 163.719 200.287C166.185 197.469 169.091 195.179 172.437 193.418C174.022 192.537 175.695 191.745 177.456 191.04C179.306 190.512 181.155 190.248 182.74 189.455C183.532 188.927 183.532 187.606 182.476 187.342C179.041 186.549 174.286 188.927 171.116 190.776C167.418 192.625 164.248 195.267 161.606 198.438C156.058 204.778 152.888 212.704 153.416 220.894C153.416 222.215 155.002 222.215 155.002 220.894Z" fill="#B15500"/>
<path d="M164.512 203.193C168.21 201.079 172.085 199.23 176.135 197.645C179.834 196.06 183.796 195.003 187.759 193.418C188.816 193.154 188.552 191.304 187.231 191.568C183.004 192.361 179.041 194.21 175.343 195.796C171.292 197.733 167.418 199.846 163.719 202.136C162.927 202.664 163.719 203.721 164.512 203.193Z" fill="#B15500"/>
<path d="M159.492 213.232C164.247 210.062 169.267 207.156 174.286 204.514C176.928 203.281 179.657 202.137 182.475 201.08C184.589 200.287 187.759 199.759 189.608 197.909C189.872 197.645 189.872 196.853 189.344 196.853C186.702 196.324 183.796 198.174 181.419 198.966C178.777 200.023 176.135 201.256 173.493 202.665C168.21 205.307 163.191 208.477 158.7 212.176C157.907 212.704 158.7 213.761 159.492 213.232Z" fill="#B15500"/>
<path d="M156.322 220.894C162.398 218.516 168.474 215.874 174.286 212.704C177.104 211.295 179.922 209.798 182.74 208.213C185.646 206.892 189.08 205.307 191.193 203.193C191.986 202.401 191.193 201.344 190.401 201.608C187.495 202.136 184.853 204.25 182.211 205.571C179.217 207.156 176.223 208.741 173.229 210.326C167.418 213.497 161.606 216.403 155.794 219.837C155.266 220.101 155.53 221.158 156.322 220.894Z" fill="#B15500"/>
<path d="M162.927 223.007C167.33 222.127 171.557 220.63 175.607 218.516C179.306 216.667 183.797 214.553 186.174 211.119C186.703 210.326 185.646 209.798 185.118 210.062C183.268 210.855 181.683 212.176 179.834 213.232C178.073 214.289 176.224 215.346 174.286 216.403C170.588 218.34 166.625 220.013 162.398 221.422C161.342 221.686 161.87 223.272 162.927 223.007Z" fill="#B15500"/>
<path d="M67.0312 80.3449C63.8611 93.026 63.597 105.971 66.2387 118.917C68.3521 129.484 72.0506 142.43 81.2967 149.034C91.0711 155.903 103.487 150.619 111.941 144.015C120.13 137.146 126.47 128.163 130.433 118.124C135.188 107.028 136.509 94.347 134.132 82.4584C133.867 80.3449 130.697 81.1375 130.961 83.251C134.924 102.801 128.32 124.2 114.054 138.202C106.922 145.336 95.2979 152.997 84.9951 147.978C75.4848 143.486 71.7864 131.069 69.4088 121.559C65.9746 108.349 65.4462 94.0828 67.8238 80.6091C67.8238 80.0807 67.0312 79.8165 67.0312 80.3449Z" fill="#B15500"/>
<path d="M60.9552 91.4407C60.1626 92.4974 59.1059 93.29 58.3134 94.3468C57.4328 95.4035 56.6403 96.5484 55.9359 97.7812C54.3508 100.247 52.8538 102.713 51.4449 105.179C48.8031 110.286 46.4256 115.482 44.3122 120.766C42.1988 126.226 40.4376 131.774 39.0287 137.41C38.5004 140.228 37.972 143.046 37.4436 145.864C36.9153 148.506 36.3869 151.412 36.6511 154.318C36.6511 155.11 37.7078 155.375 37.9719 154.582C38.7645 151.676 39.0287 148.77 39.557 145.864C39.9092 143.398 40.4376 140.844 41.1421 138.202C42.3749 132.742 43.9599 127.37 45.8972 122.087C48.0106 116.803 50.3882 111.607 53.0299 106.499C54.4389 104.21 55.8478 101.832 57.2567 99.3664C58.1373 98.3096 58.9298 97.1648 59.6343 95.9319C60.4268 94.6109 60.9551 93.29 61.7476 91.969C62.0118 91.7048 61.2193 91.1765 60.9552 91.4407Z" fill="#B15500"/>
<path d="M60.6909 103.329C57.2566 108.085 55.1432 113.633 52.7657 118.916C50.4762 124.024 48.4509 129.22 46.6897 134.504C44.7524 139.963 43.0793 145.423 41.6704 150.883C40.0854 156.431 38.7644 161.979 38.2361 167.527C38.2361 168.32 39.2928 168.32 39.557 167.792C41.142 162.508 42.1987 156.96 43.5196 151.412C45.1046 145.952 46.7777 140.492 48.5389 135.032C50.4762 129.572 52.5896 124.2 54.8791 118.916C56.9925 113.897 59.6343 108.877 61.4835 103.593C61.7477 103.065 60.9551 102.801 60.6909 103.329Z" fill="#B15500"/>
<path d="M63.0685 117.067C57.2566 125.169 52.6777 133.975 49.3314 143.486C47.7464 148.065 46.4255 152.821 45.3688 157.752C44.3121 162.508 43.2554 167.791 43.5196 172.547C43.5196 173.604 44.8405 173.868 45.1046 172.811C45.8972 168.056 46.1614 163.3 46.9539 158.545C48.0106 153.789 49.3315 149.034 50.9165 144.278C54.0866 134.768 58.5776 125.785 64.1252 117.595C64.3894 117.067 63.5968 116.538 63.0685 117.067Z" fill="#B15500"/>
<path d="M67.0311 130.805C68.352 130.541 68.352 128.692 67.5595 128.163C65.7103 126.578 63.861 129.484 63.0685 130.805C59.1059 136.353 56.2 142.165 53.8224 148.77C51.709 155.111 50.124 161.715 49.5957 168.584C49.2434 171.931 49.1553 175.365 49.3315 178.888C49.5956 181.794 49.5957 185.493 50.9165 188.134C51.1807 188.399 51.9732 188.399 51.9732 187.87C52.5016 185.757 51.9732 183.115 51.9732 181.001C51.621 178.359 51.5329 175.806 51.709 173.34C51.709 168.056 52.3255 162.772 53.5583 157.488C54.615 152.381 56.2 147.449 58.3134 142.694C59.3701 140.404 60.5148 138.115 61.7476 135.825C62.4521 134.768 63.1566 133.711 63.8611 132.655C64.2133 132.126 64.5655 131.51 64.9177 130.805C65.0939 130.629 65.1819 130.453 65.1819 130.277C65.5342 129.572 66.0625 129.396 66.767 129.749C66.2386 130.013 66.5028 130.805 67.0311 130.805Z" fill="#B15500"/>
<path d="M68.088 142.165C63.3328 149.034 59.8985 156.696 57.7851 164.885C56.7284 168.936 56.112 172.987 55.9359 177.038C55.6717 181.001 55.4075 185.756 56.7284 189.455C56.9926 190.248 57.7851 189.984 58.0493 189.191C58.5776 185.492 58.0493 181.265 58.0493 177.302C58.4015 173.252 59.018 169.201 59.8985 165.15C61.7478 157.224 64.9179 149.562 69.1446 142.694C69.4088 142.165 68.6163 141.637 68.088 142.165Z" fill="#B15500"/>
<path d="M69.9372 155.639C67.8238 161.451 66.2388 167.527 65.4463 173.604C64.6538 179.416 63.8612 185.492 64.6537 191.305C64.9179 192.361 66.503 191.833 66.503 191.04C66.7671 188.134 66.503 185.228 66.7671 182.322C66.9433 179.328 67.2074 176.422 67.5596 173.604C68.3522 167.527 69.4088 161.715 70.9939 156.167C71.258 155.375 70.2014 154.846 69.9372 155.639Z" fill="#B15500"/>
<path d="M75.2207 182.322C73.6356 183.907 72.8432 186.285 73.3715 188.662C73.6357 190.512 74.6924 193.154 77.0699 193.682C77.8625 193.682 78.1266 192.889 77.5982 192.361C76.5415 191.04 75.4849 190.248 75.2207 188.398C74.6923 186.549 75.2207 184.964 76.5416 183.643C77.3341 182.85 76.0132 181.529 75.2207 182.322Z" fill="#B15500"/>
<path d="M126.999 116.275C131.226 123.408 134.396 131.333 136.245 139.259C137.125 143.31 137.742 147.449 138.094 151.676C138.358 155.903 138.094 160.13 138.358 164.357C138.358 164.886 139.415 165.15 139.679 164.357C141.264 156.431 139.943 147.185 137.83 139.259C135.981 130.805 132.282 122.879 127.527 115.746C127.263 115.218 126.735 115.746 126.999 116.275Z" fill="#B15500"/>
<path d="M132.547 112.048C132.018 111.167 132.459 111.255 133.867 112.312C134.044 112.488 134.22 112.752 134.396 113.104C134.748 113.985 135.1 114.954 135.453 116.01C136.333 117.596 137.038 119.181 137.566 120.766C139.151 124.464 140.56 128.251 141.793 132.126C144.17 139.523 145.491 146.921 146.812 154.318C147.076 155.11 148.133 154.846 148.133 154.318C147.869 142.429 144.434 130.805 139.679 119.973C138.358 117.331 137.302 114.689 135.717 112.048C134.924 110.991 133.603 109.67 132.018 110.198C130.169 110.991 132.547 114.161 133.339 112.312C133.603 112.048 132.811 111.519 132.547 112.048Z" fill="#B15500"/>
<path d="M135.188 102.801C139.415 110.462 143.378 118.916 148.925 126.05C149.19 126.578 150.511 126.314 149.982 125.521C146.548 117.331 141.264 109.67 136.509 102.008C135.981 101.216 134.924 102.008 135.188 102.801Z" fill="#B15500"/>
<path d="M142.321 104.915C145.491 104.915 145.491 100.159 142.321 100.159C139.151 100.159 139.151 104.915 142.321 104.915Z" fill="#B15500"/>
<path d="M90.0143 21.6948C80.7682 29.3563 74.428 39.9239 70.9937 51.2841C69.1445 56.8321 68.3521 62.6443 68.0879 68.7206C68.0879 74.2686 68.6162 80.8734 70.7296 86.4213C70.9938 86.6855 71.5221 86.6855 71.5221 86.1571C70.4654 80.345 69.4088 74.5328 69.4088 68.7206C69.4088 62.9084 70.4655 57.0963 72.0505 51.5483C75.2206 40.1881 81.825 30.1489 90.5427 22.2232C90.8069 21.959 90.2785 21.4306 90.0143 21.6948Z" fill="#B15500"/>
<path d="M91.5991 26.7143C83.1456 35.4326 77.0696 47.057 74.692 58.9455C73.6353 65.0219 73.3711 71.0983 73.8994 77.1746C74.6919 83.251 75.7486 89.8557 78.9187 94.8754C79.4471 95.6679 80.2397 95.1395 79.9755 94.6111C78.6546 88.799 76.8054 83.251 76.0129 77.1746C75.4845 71.3625 75.7487 65.2861 76.8054 59.2097C78.9187 47.3212 83.6739 36.2252 91.8633 27.2427C92.1275 26.9785 91.8633 26.4501 91.5991 26.7143Z" fill="#B15500"/>
<path d="M87.1087 49.1703C83.4102 57.8886 80.7685 67.3994 79.976 76.9102C79.7118 81.9298 78.3909 93.29 85.5236 94.611C86.052 94.8752 86.5803 93.8184 86.052 93.5542C82.8819 92.2333 81.8252 89.063 81.561 85.8927C81.0327 81.9299 81.561 77.967 82.0894 74.0042C82.7938 65.5501 84.6431 57.2721 87.6371 49.1703C87.9012 48.9061 87.1087 48.6419 87.1087 49.1703Z" fill="#B15500"/>
<path d="M86.8444 77.1744C85.5235 80.3446 84.9952 84.0433 85.5235 87.4777C86.0519 90.648 87.3728 94.6109 90.2787 96.4602C90.807 96.9886 91.5995 96.196 91.0712 95.6676C89.4861 93.0257 87.6369 90.9122 87.1086 87.742C86.316 84.3075 86.5802 80.873 88.1653 77.9669C88.4294 77.1744 87.3727 76.646 86.8444 77.1744Z" fill="#B15500"/>
<path d="M35.5942 180.737C40.8777 186.549 44.8403 193.154 46.6895 200.551C47.7462 204.074 48.3626 207.684 48.5387 211.383C48.8029 215.082 48.0104 218.78 47.7462 222.479C47.7462 223.271 48.8029 223.271 49.0671 222.743C50.388 219.309 50.388 215.082 50.388 211.383C50.2119 207.508 49.5074 203.633 48.2746 199.759C46.1612 192.361 42.1986 185.492 36.3868 180.208C35.8584 179.944 35.33 180.473 35.5942 180.737Z" fill="#B15500"/>
<path d="M43.5199 183.115C46.9542 187.342 49.8601 192.362 51.7094 197.645C52.4138 199.935 53.0303 202.401 53.5586 205.043C54.087 207.685 54.087 210.326 54.8795 212.968C54.8795 213.497 56.2004 213.497 56.2004 212.968C56.4645 210.326 55.9361 207.42 55.4078 204.778C54.8794 201.96 54.0869 199.23 53.0302 196.589C50.9168 191.305 48.011 186.549 44.3125 182.322C43.7842 181.794 42.9916 182.586 43.5199 183.115Z" fill="#B15500"/>
<path d="M55.1435 194.475C57.2569 198.173 58.0495 201.872 58.5778 206.099C58.5778 206.628 59.6345 206.628 59.6345 206.099C59.6345 201.872 58.3136 197.645 55.9361 194.211C55.6719 193.682 54.8793 193.946 55.1435 194.475Z" fill="#B15500"/>
<path d="M127.791 204.779C131.226 200.816 134.924 197.117 137.566 192.626C137.83 192.097 137.038 191.569 136.509 191.833C132.547 195.268 129.641 199.759 126.471 203.722C125.942 204.514 127.263 205.307 127.791 204.779Z" fill="#B15500"/>
<path d="M132.282 210.855C134.396 203.457 138.358 196.324 143.378 190.248C143.642 189.719 143.113 188.927 142.585 189.455C136.773 195.267 133.075 202.665 131.226 210.59C131.226 211.383 132.018 211.647 132.282 210.855Z" fill="#B15500"/>
<path d="M139.943 210.855C141.264 207.156 142.321 203.193 144.17 199.759C146.284 196.06 148.661 193.154 151.303 189.984C151.567 189.72 151.303 188.927 150.775 189.455C144.698 193.947 139.679 203.193 139.415 210.855C139.415 211.119 139.943 211.119 139.943 210.855Z" fill="#B15500"/>
<path d="M144.435 216.138C146.196 212.792 147.957 209.357 149.718 205.835C151.303 202.929 153.416 199.494 154.209 196.06C154.209 195.531 153.681 195.003 153.417 195.531C151.039 198.173 149.718 201.872 148.133 205.042C146.548 208.565 144.963 212.087 143.378 215.61C143.114 216.138 143.906 216.667 144.435 216.138Z" fill="#B15500"/>
<path d="M148.133 94.611C151.039 99.6306 153.68 104.914 157.115 109.406C157.379 109.934 158.171 109.406 157.907 108.877C155.53 103.858 152.095 98.8381 149.189 94.0826C148.661 93.5543 147.869 94.0826 148.133 94.611Z" fill="#B15500"/>
<path d="M155.794 99.1021C157.379 102.008 158.964 104.914 160.549 107.556C160.813 108.085 161.342 107.556 161.077 107.292C159.757 104.386 157.907 101.744 156.322 98.8379C156.058 98.5738 155.53 98.838 155.794 99.1021Z" fill="#B15500"/>
<path d="M27.6694 121.558C28.9022 120.325 30.135 119.092 31.3679 117.86C32.4246 116.803 33.7455 115.746 34.538 114.425C34.8022 113.897 34.0096 113.368 33.4813 113.633C32.4246 114.425 31.3679 115.746 30.3112 116.803C29.0784 118.036 27.8456 119.181 26.6127 120.237C26.0844 121.03 27.1411 122.087 27.6694 121.558Z" fill="#B15500"/>
<path d="M135.188 32.7904C136.95 36.8414 138.447 40.9803 139.679 45.2074C140.736 49.4344 141.264 53.3973 142.057 57.6243C142.321 58.1527 143.114 58.1527 143.114 57.3601C143.114 48.906 139.679 39.9236 135.981 32.2621C135.717 31.7337 134.924 32.2621 135.188 32.7904Z" fill="#B15500"/>
<path d="M137.038 21.9585C138.359 22.4869 139.151 23.8079 139.415 25.1288C139.679 26.714 139.151 27.7707 138.359 28.8275C137.83 29.6201 138.887 30.6768 139.679 30.1484C143.642 27.7707 141.264 21.4302 137.566 20.3734C136.509 20.1092 135.981 21.4302 137.038 21.9585Z" fill="#B15500"/>
<path d="M61.7478 45.7357C61.4836 48.3776 57.521 48.6418 55.6718 47.3209C53.5584 45.9999 52.7658 42.8296 52.5017 40.4519C51.7091 36.7533 50.9166 29.8843 55.4076 28.035C55.936 27.7708 56.4644 27.2425 56.2002 26.4499C53.5584 22.487 55.9359 17.7316 59.106 14.8255C62.8045 11.6552 67.5597 9.8059 72.0506 8.22076C76.5416 6.63562 81.8251 4.25792 86.0519 7.16401C89.4861 9.27753 91.3354 13.7687 92.9204 17.4674C93.4488 18.7884 95.8263 18.26 95.298 16.6748C93.4487 12.1836 91.3353 7.42818 87.1085 4.78628C81.8251 1.88019 76.0133 4.52209 70.7298 6.10723C65.7105 7.95656 59.8986 10.3343 56.2002 14.5613C53.2943 18.26 51.1808 23.2796 54.0867 27.5066C54.439 26.9783 54.7032 26.4499 54.8793 25.9215C48.0108 28.5634 49.3316 38.6026 50.9167 43.8864C51.9734 47.0567 53.8226 49.6986 57.2569 49.9628C59.6344 49.9628 62.012 48.1134 62.2762 45.7357C62.2762 45.2073 61.7478 45.2073 61.7478 45.7357Z" fill="#B15500"/>
<path d="M124.093 17.4675C123.036 14.5614 123.3 10.8627 125.678 8.48503C128.32 5.84313 132.547 5.57892 135.452 7.42825C135.981 7.69244 136.509 7.69246 137.037 7.16408C139.943 2.93704 146.019 1.3519 150.775 3.20123C156.586 5.31475 158.7 11.3911 158.7 16.9391C158.7 22.4871 157.115 28.0351 154.473 33.0547C153.152 35.1682 151.567 37.5459 149.454 39.131C147.076 40.9804 144.699 40.7162 142.057 41.5088C140.736 42.0372 140.736 43.8865 142.057 44.1507C146.548 45.4716 151.303 40.9804 153.945 37.8101C157.115 33.8472 159.228 28.5635 160.021 23.5439C161.87 14.2972 159.757 1.88027 148.661 0.295126C143.378 -0.233254 138.094 1.88026 135.188 6.1073C135.717 5.93117 136.157 5.84313 136.509 5.84313C132.811 3.46542 127.791 3.7296 124.621 6.89988C121.451 9.80597 120.659 14.5614 123.036 17.9958C123.3 18.5242 124.093 18.26 124.093 17.4675Z" fill="#B15500"/>
</svg>
