<svg width="104" height="104" viewBox="0 0 104 104" fill="none" xmlns="http://www.w3.org/2000/svg">
<g filter="url(#filter0_d_196_51)">
<rect width="96" height="96" rx="48" fill="#69D2E7"/>
</g>
<path fill-rule="evenodd" clip-rule="evenodd" d="M24.8601 34.7743C25.3299 34.8494 25.7506 35.108 26.0297 35.4933C26.3088 35.8786 26.4234 36.359 26.3483 36.8287L25.499 42.1426C25.4239 42.6123 25.1652 43.033 24.78 43.3121C24.3947 43.5912 23.9143 43.7058 23.4446 43.6307C22.9748 43.5556 22.5541 43.297 22.275 42.9117C21.9959 42.5265 21.8813 42.0461 21.9564 41.5763L22.8058 36.2625C22.8808 35.7927 23.1395 35.372 23.5247 35.0929C23.91 34.8138 24.3904 34.6992 24.8601 34.7743Z" fill="#FAFF0A"/>
<g filter="url(#filter1_d_196_51)">
<path fill-rule="evenodd" clip-rule="evenodd" d="M19.7238 38.4944C19.7989 38.0247 20.0575 37.604 20.4428 37.3249C20.8281 37.0458 21.3084 36.9312 21.7782 37.0063L27.092 37.8556C27.5618 37.9307 27.9825 38.1893 28.2616 38.5746C28.5407 38.9599 28.6553 39.4402 28.5802 39.91C28.5051 40.3798 28.2465 40.8005 27.8612 41.0796C27.4759 41.3587 26.9956 41.4733 26.5258 41.3982L21.212 40.5488C20.7422 40.4737 20.3215 40.2151 20.0424 39.8298C19.7633 39.4446 19.6487 38.9642 19.7238 38.4944ZM38.4602 17.8743C38.93 17.9493 39.3507 18.208 39.6298 18.5933C39.9088 18.9785 40.0234 19.4589 39.9484 19.9287L38.8159 27.0138C38.7408 27.4836 38.4822 27.9043 38.0969 28.1833C37.7116 28.4624 37.2313 28.577 36.7615 28.502C36.2917 28.4269 35.871 28.1682 35.5919 27.783C35.3128 27.3977 35.1982 26.9173 35.2733 26.4476L36.4058 19.3624C36.4809 18.8927 36.7395 18.4719 37.1248 18.1929C37.5101 17.9138 37.9904 17.7992 38.4602 17.8743Z" fill="#FAFF0A"/>
</g>
<path fill-rule="evenodd" clip-rule="evenodd" d="M32.297 22.3392C32.372 21.8694 32.6307 21.4487 33.016 21.1696C33.4012 20.8905 33.8816 20.7759 34.3514 20.851L41.4365 21.9835C41.9063 22.0585 42.327 22.3172 42.606 22.7024C42.8851 23.0877 42.9997 23.5681 42.9247 24.0378C42.8496 24.5076 42.5909 24.9283 42.2057 25.2074C41.8204 25.4865 41.34 25.6011 40.8703 25.526L33.7851 24.3936C33.3154 24.3185 32.8947 24.0598 32.6156 23.6746C32.3365 23.2893 32.2219 22.8089 32.297 22.3392Z" fill="#FAFF00"/>
<g filter="url(#filter2_d_196_51)">
<path d="M68.2508 61.8227L68.2507 61.8227L68.2445 61.8339C65.7005 66.5189 61.4629 70.0552 56.3982 71.7197C51.3336 73.3841 45.8244 73.0511 40.9971 70.7887C36.1698 68.5263 32.389 64.5053 30.4278 59.548C28.4669 54.5913 28.4731 49.0729 30.4452 44.1208C31.7855 40.8421 33.9329 37.9555 36.6877 35.729C39.4431 33.5022 42.7169 32.0081 46.2046 31.3857L46.2046 31.3859L46.2153 31.3837C46.8207 31.2619 47.4484 31.3177 48.0229 31.5443L48.0298 31.547L48.0368 31.5495C48.6147 31.7578 49.1221 32.1248 49.5008 32.6083C49.8687 33.0934 50.0946 33.6712 50.1534 34.2773C50.212 34.8823 50.1018 35.4917 49.835 36.0379C48.3936 38.7896 47.8329 41.9179 48.2289 44.999C48.5035 47.296 49.3586 49.4852 50.7135 51.3603C52.0684 53.2352 53.8784 54.7342 55.9729 55.716C58.7663 57.0605 61.9086 57.5027 64.9644 56.9814C65.5744 56.9112 66.192 57.011 66.7489 57.27L66.7488 57.27L66.7557 57.2731C67.3131 57.5222 67.7895 57.9226 68.1309 58.4287C68.4715 58.9336 68.6642 59.5237 68.6872 60.1323C68.6978 60.7249 68.5469 61.3093 68.2508 61.8227Z" fill="#0033A3" stroke="black"/>
</g>
<defs>
<filter id="filter0_d_196_51" x="0" y="0" width="104" height="104" filterUnits="userSpaceOnUse" color-interpolation-filters="sRGB">
<feFlood flood-opacity="0" result="BackgroundImageFix"/>
<feColorMatrix in="SourceAlpha" type="matrix" values="0 0 0 0 0 0 0 0 0 0 0 0 0 0 0 0 0 0 127 0" result="hardAlpha"/>
<feOffset dx="4" dy="4"/>
<feGaussianBlur stdDeviation="2"/>
<feComposite in2="hardAlpha" operator="out"/>
<feColorMatrix type="matrix" values="0 0 0 0 0 0 0 0 0 0 0 0 0 0 0 0 0 0 1 0"/>
<feBlend mode="normal" in2="BackgroundImageFix" result="effect1_dropShadow_196_51"/>
<feBlend mode="normal" in="SourceGraphic" in2="effect1_dropShadow_196_51" result="shape"/>
</filter>
<filter id="filter1_d_196_51" x="19.7012" y="17.8516" width="28.2695" height="31.5693" filterUnits="userSpaceOnUse" color-interpolation-filters="sRGB">
<feFlood flood-opacity="0" result="BackgroundImageFix"/>
<feColorMatrix in="SourceAlpha" type="matrix" values="0 0 0 0 0 0 0 0 0 0 0 0 0 0 0 0 0 0 127 0" result="hardAlpha"/>
<feOffset dx="4" dy="4"/>
<feGaussianBlur stdDeviation="2"/>
<feComposite in2="hardAlpha" operator="out"/>
<feColorMatrix type="matrix" values="0 0 0 0 0 0 0 0 0 0 0 0 0 0 0 0 0 0 0.25 0"/>
<feBlend mode="normal" in2="BackgroundImageFix" result="effect1_dropShadow_196_51"/>
<feBlend mode="normal" in="SourceGraphic" in2="effect1_dropShadow_196_51" result="shape"/>
</filter>
<filter id="filter2_d_196_51" x="16.5439" y="23.5444" width="65.5234" height="65.5229" filterUnits="userSpaceOnUse" color-interpolation-filters="sRGB">
<feFlood flood-opacity="0" result="BackgroundImageFix"/>
<feColorMatrix in="SourceAlpha" type="matrix" values="0 0 0 0 0 0 0 0 0 0 0 0 0 0 0 0 0 0 127 0" result="hardAlpha"/>
<feOffset dy="4"/>
<feGaussianBlur stdDeviation="2"/>
<feComposite in2="hardAlpha" operator="out"/>
<feColorMatrix type="matrix" values="0 0 0 0 0 0 0 0 0 0 0 0 0 0 0 0 0 0 0.25 0"/>
<feBlend mode="normal" in2="BackgroundImageFix" result="effect1_dropShadow_196_51"/>
<feBlend mode="normal" in="SourceGraphic" in2="effect1_dropShadow_196_51" result="shape"/>
</filter>
</defs>
</svg>
