<svg width="196" height="194" viewBox="0 0 196 194" fill="none" xmlns="http://www.w3.org/2000/svg">
<path d="M115.429 46.8324L147.478 22.0115L138.213 61.4748L137.423 64.8396L140.866 64.5366L181.246 60.9827L152.117 89.1727L149.633 91.5762L152.694 93.1827L188.585 112.024L148.839 119.991L145.45 120.67L147.156 123.676L167.164 158.931L129.42 144.144L126.202 142.883L126.012 146.334L123.783 186.809L100.026 153.965L98 151.164L95.9744 153.965L72.2168 186.809L69.9879 146.334L69.7978 142.883L66.5797 144.144L28.8365 158.931L48.8437 123.676L50.5496 120.67L47.1608 119.991L7.41505 112.024L43.3064 93.1827L46.3666 91.5762L43.8829 89.1727L14.7537 60.9827L55.1339 64.5366L58.5768 64.8396L57.7869 61.4748L48.5225 22.0115L80.571 46.8324L83.3036 48.9486L84.4582 45.691L98 7.48355L111.542 45.691L112.696 48.9486L115.429 46.8324Z" fill="#FF4911" stroke="black" stroke-width="5"/>
</svg>
