<svg width="104" height="104" viewBox="0 0 104 104" fill="none" xmlns="http://www.w3.org/2000/svg">
<g filter="url(#filter0_d_195_2659)">
<rect width="96" height="96" rx="48" fill="#69D2E7"/>
<circle cx="48" cy="48" r="15.5" fill="#FF6610" stroke="#101010"/>
<circle cx="41" cy="43" r="3" fill="#FAFF0A"/>
<rect x="46.5" y="25.5" width="3" height="5" rx="1.5" fill="#FAFF0A" stroke="#101010"/>
<rect x="46.5" y="65.5" width="3" height="5" rx="1.5" fill="#FAFF0A" stroke="#101010"/>
<rect x="70.5" y="46.5" width="3" height="5" rx="1.5" transform="rotate(90 70.5 46.5)" fill="#FAFF0A" stroke="#101010"/>
<rect x="30.5" y="46.5" width="3" height="5" rx="1.5" transform="rotate(90 30.5 46.5)" fill="#FAFF0A" stroke="#101010"/>
<rect x="30.7071" y="32.8286" width="3" height="5" rx="1.5" transform="rotate(-45 30.7071 32.8286)" fill="#FAFF0A" stroke="#101010"/>
<rect x="59.7071" y="60.8286" width="3" height="5" rx="1.5" transform="rotate(-45 59.7071 60.8286)" fill="#FAFF0A" stroke="#101010"/>
<rect x="64.2422" y="31.7071" width="3" height="5" rx="1.5" transform="rotate(45 64.2422 31.7071)" fill="#FAFF0A" stroke="#101010"/>
<rect x="34.2422" y="59.7071" width="3" height="5" rx="1.5" transform="rotate(45 34.2422 59.7071)" fill="#FAFF0A" stroke="#101010"/>
</g>
<defs>
<filter id="filter0_d_195_2659" x="0" y="0" width="104" height="104" filterUnits="userSpaceOnUse" color-interpolation-filters="sRGB">
<feFlood flood-opacity="0" result="BackgroundImageFix"/>
<feColorMatrix in="SourceAlpha" type="matrix" values="0 0 0 0 0 0 0 0 0 0 0 0 0 0 0 0 0 0 127 0" result="hardAlpha"/>
<feOffset dx="4" dy="4"/>
<feGaussianBlur stdDeviation="2"/>
<feComposite in2="hardAlpha" operator="out"/>
<feColorMatrix type="matrix" values="0 0 0 0 0 0 0 0 0 0 0 0 0 0 0 0 0 0 1 0"/>
<feBlend mode="normal" in2="BackgroundImageFix" result="effect1_dropShadow_195_2659"/>
<feBlend mode="normal" in="SourceGraphic" in2="effect1_dropShadow_195_2659" result="shape"/>
</filter>
</defs>
</svg>
